<svg width="24" height="24" viewBox="0 0 24 24" fill="none" xmlns="http://www.w3.org/2000/svg">
<path d="M22.8075 6.39756L20.5575 4.18881C20.2763 3.90858 19.8955 3.75122 19.4986 3.75122C19.1016 3.75122 18.7208 3.90858 18.4397 4.18881L9.74997 12.7716L6.31028 9.43412C6.02854 9.1548 5.64761 8.99846 5.25088 8.99934C4.85414 9.00022 4.47391 9.15824 4.19341 9.43881L1.94341 11.6888C1.6626 11.97 1.50488 12.3512 1.50488 12.7487C1.50488 13.1461 1.6626 13.5273 1.94341 13.8085L8.65778 20.5585C8.79707 20.6978 8.96245 20.8083 9.14446 20.8837C9.32647 20.9591 9.52155 20.998 9.71856 20.998C9.91558 20.998 10.1107 20.9591 10.2927 20.8837C10.4747 20.8083 10.6401 20.6978 10.7793 20.5585L22.8122 8.52287C22.9517 8.3832 23.0624 8.21735 23.1377 8.03483C23.213 7.8523 23.2516 7.6567 23.2512 7.45924C23.2507 7.26178 23.2113 7.06635 23.1352 6.88416C23.059 6.70198 22.9477 6.53661 22.8075 6.39756ZM9.71434 19.5001L2.99997 12.7501L5.24997 10.5001C5.2527 10.5023 5.25521 10.5048 5.25747 10.5076L9.22778 14.3597C9.36794 14.4969 9.55623 14.5737 9.75231 14.5737C9.9484 14.5737 10.1367 14.4969 10.2768 14.3597L19.5056 5.25006L21.75 7.46256L9.71434 19.5001Z" fill="url(#paint0_linear_234_2281)"/>
<path d="M22.8075 6.39756L20.5575 4.18881C20.2763 3.90858 19.8955 3.75122 19.4986 3.75122C19.1016 3.75122 18.7208 3.90858 18.4397 4.18881L9.74997 12.7716L6.31028 9.43412C6.02854 9.1548 5.64761 8.99846 5.25088 8.99934C4.85414 9.00022 4.47391 9.15824 4.19341 9.43881L1.94341 11.6888C1.6626 11.97 1.50488 12.3512 1.50488 12.7487C1.50488 13.1461 1.6626 13.5273 1.94341 13.8085L8.65778 20.5585C8.79707 20.6978 8.96245 20.8083 9.14446 20.8837C9.32647 20.9591 9.52155 20.998 9.71856 20.998C9.91558 20.998 10.1107 20.9591 10.2927 20.8837C10.4747 20.8083 10.6401 20.6978 10.7793 20.5585L22.8122 8.52287C22.9517 8.3832 23.0624 8.21735 23.1377 8.03483C23.213 7.8523 23.2516 7.6567 23.2512 7.45924C23.2507 7.26178 23.2113 7.06635 23.1352 6.88416C23.059 6.70198 22.9477 6.53661 22.8075 6.39756ZM9.71434 19.5001L2.99997 12.7501L5.24997 10.5001C5.2527 10.5023 5.25521 10.5048 5.25747 10.5076L9.22778 14.3597C9.36794 14.4969 9.55623 14.5737 9.75231 14.5737C9.9484 14.5737 10.1367 14.4969 10.2768 14.3597L19.5056 5.25006L21.75 7.46256L9.71434 19.5001Z" stroke="url(#paint1_linear_234_2281)"/>
<defs>
<linearGradient id="paint0_linear_234_2281" x1="1.50488" y1="12.3746" x2="23.2512" y2="12.3746" gradientUnits="userSpaceOnUse">
<stop stop-color="#7CB13A"/>
<stop offset="1" stop-color="#16AAE2"/>
</linearGradient>
<linearGradient id="paint1_linear_234_2281" x1="23.2512" y1="5.16489" x2="7.93706" y2="6.5162" gradientUnits="userSpaceOnUse">
<stop stop-color="#D8F4FF"/>
<stop offset="1" stop-color="#7AB13D" stop-opacity="0.2"/>
</linearGradient>
</defs>
</svg>
