<svg width="32" height="32" viewBox="0 0 32 32" fill="none" xmlns="http://www.w3.org/2000/svg">
<path d="M28.2325 12.8525L28.2216 12.8412C27.7538 12.3522 27.2723 11.8491 27.09 11.4062C26.9203 10.9983 26.91 10.3227 26.9001 9.66763L26.9 9.66375L26.8999 9.65894C26.8812 8.44012 26.86 7.05999 25.9 6.1C24.94 5.14001 23.5599 5.1188 22.3411 5.10007L22.3363 5.1L22.3324 5.09994C21.6773 5.08996 21.0017 5.07967 20.5938 4.91C20.15 4.72678 19.6429 4.24155 19.1518 3.77157L19.1475 3.7675C18.285 2.93875 17.305 2 16 2C14.695 2 13.7162 2.93875 12.8525 3.7675L12.8412 3.77836C12.3522 4.24622 11.8491 4.72766 11.4062 4.91C11.0009 5.07963 10.323 5.08996 9.66808 5.09993L9.66375 5.1L9.65894 5.10007C8.44012 5.1188 7.05999 5.14001 6.1 6.1C5.15316 7.04684 5.12563 8.40239 5.10112 9.60877C5.10075 9.62713 5.10037 9.64546 5.1 9.66375L5.09994 9.66763C5.08996 10.3227 5.07967 10.9983 4.91 11.4062C4.72678 11.85 4.24156 12.3571 3.77157 12.8482L3.7675 12.8525C2.93875 13.715 2 14.695 2 16C2 17.305 2.93875 18.2837 3.7675 19.1475L3.77836 19.1588C4.24622 19.6478 4.72766 20.1509 4.91 20.5938C5.07967 21.0017 5.08996 21.6773 5.09994 22.3324L5.1 22.3363L5.10007 22.3411C5.1188 23.5599 5.14001 24.94 6.1 25.9C7.05999 26.86 8.44012 26.8812 9.65894 26.8999L9.66375 26.9L9.66763 26.9001C10.3227 26.91 10.9983 26.9203 11.4062 27.09C11.85 27.2732 12.3571 27.7584 12.8483 28.2284L12.8525 28.2325C13.715 29.0613 14.695 30 16 30C17.305 30 18.2837 29.0613 19.1475 28.2325L19.1588 28.2216C19.6478 27.7538 20.1509 27.2723 20.5938 27.09C21.0017 26.9203 21.6773 26.91 22.3324 26.9001L22.3363 26.9L22.3411 26.8999C23.5599 26.8812 24.94 26.86 25.9 25.9C26.86 24.94 26.8812 23.5599 26.8999 22.3411L26.9 22.3363L26.9001 22.3324C26.91 21.6773 26.9203 21.0017 27.09 20.5938C27.2732 20.15 27.7585 19.6429 28.2284 19.1517L28.2325 19.1475C29.0613 18.285 30 17.305 30 16C30 14.695 29.0613 13.7162 28.2325 12.8525ZM26.7887 17.7638L26.785 17.7676C26.1874 18.3914 25.5693 19.0366 25.2412 19.8288C24.9262 20.5913 24.9125 21.4625 24.9 22.3062C24.8875 23.1812 24.8738 24.0975 24.485 24.485C24.0963 24.8725 23.1862 24.8875 22.3062 24.9C21.4625 24.9125 20.5913 24.9262 19.8288 25.2412C19.0366 25.5693 18.3914 26.1874 17.7676 26.785L17.7638 26.7887L17.7615 26.7909C17.1372 27.389 16.4994 28 16 28C15.5 28 14.8562 27.385 14.2362 26.7887C13.6163 26.1925 12.965 25.57 12.1713 25.2412C11.4088 24.9262 10.5375 24.9125 9.69375 24.9C8.81875 24.8875 7.9025 24.8738 7.515 24.485C7.1275 24.0963 7.1125 23.1862 7.1 22.3062C7.0875 21.4625 7.07375 20.5913 6.75875 19.8288C6.43068 19.0366 5.81255 18.3914 5.21495 17.7676L5.21125 17.7638L5.20909 17.7615C4.61103 17.1372 4 16.4994 4 16C4 15.5 4.615 14.8562 5.21125 14.2362C5.8075 13.6163 6.43 12.965 6.75875 12.1713C7.07375 11.4088 7.0875 10.5375 7.1 9.69375C7.1125 8.81875 7.12625 7.9025 7.515 7.515C7.90375 7.1275 8.81375 7.1125 9.69375 7.1C10.5375 7.0875 11.4088 7.07375 12.1713 6.75875C12.9634 6.43068 13.6086 5.81255 14.2324 5.21495L14.2362 5.21125L14.2385 5.20909C14.8628 4.61103 15.5006 4 16 4C16.5 4 17.1438 4.615 17.7638 5.21125C18.3838 5.8075 19.035 6.43 19.8288 6.75875C20.5913 7.07375 21.4625 7.0875 22.3062 7.1C23.1812 7.1125 24.0975 7.12625 24.485 7.515C24.8725 7.90375 24.8875 8.81375 24.9 9.69375C24.9125 10.5375 24.9262 11.4088 25.2412 12.1713C25.5693 12.9634 26.1874 13.6086 26.785 14.2324L26.7887 14.2362L26.7909 14.2385C27.389 14.8628 28 15.5006 28 16C28 16.5 27.385 17.1438 26.7887 17.7638ZM21.7075 12.2925C21.8005 12.3854 21.8742 12.4957 21.9246 12.6171C21.9749 12.7385 22.0008 12.8686 22.0008 13C22.0008 13.1314 21.9749 13.2615 21.9246 13.3829C21.8742 13.5043 21.8005 13.6146 21.7075 13.7075L14.7075 20.7075C14.6146 20.8005 14.5043 20.8742 14.3829 20.9246C14.2615 20.9749 14.1314 21.0008 14 21.0008C13.8686 21.0008 13.7385 20.9749 13.6171 20.9246C13.4957 20.8742 13.3854 20.8005 13.2925 20.7075L10.2925 17.7075C10.1049 17.5199 9.99944 17.2654 9.99944 17C9.99944 16.7346 10.1049 16.4801 10.2925 16.2925C10.4801 16.1049 10.7346 15.9994 11 15.9994C11.2654 15.9994 11.5199 16.1049 11.7075 16.2925C12.9735 17.5592 15.0267 17.5593 16.2929 16.2929L20.2925 12.2925C20.3854 12.1995 20.4957 12.1258 20.6171 12.0754C20.7385 12.0251 20.8686 11.9992 21 11.9992C21.1314 11.9992 21.2615 12.0251 21.3829 12.0754C21.5043 12.1258 21.6146 12.1995 21.7075 12.2925Z" fill="url(#paint0_linear_214_3096)"/>
<path d="M28.2325 12.8525L28.2216 12.8412C27.7538 12.3522 27.2723 11.8491 27.09 11.4062C26.9203 10.9983 26.91 10.3227 26.9001 9.66763L26.9 9.66375L26.8999 9.65894C26.8812 8.44012 26.86 7.05999 25.9 6.1C24.94 5.14001 23.5599 5.1188 22.3411 5.10007L22.3363 5.1L22.3324 5.09994C21.6773 5.08996 21.0017 5.07967 20.5938 4.91C20.15 4.72678 19.6429 4.24155 19.1518 3.77157L19.1475 3.7675C18.285 2.93875 17.305 2 16 2C14.695 2 13.7162 2.93875 12.8525 3.7675L12.8412 3.77836C12.3522 4.24622 11.8491 4.72766 11.4062 4.91C11.0009 5.07963 10.323 5.08996 9.66808 5.09993L9.66375 5.1L9.65894 5.10007C8.44012 5.1188 7.05999 5.14001 6.1 6.1C5.15316 7.04684 5.12563 8.40239 5.10112 9.60877C5.10075 9.62713 5.10037 9.64546 5.1 9.66375L5.09994 9.66763C5.08996 10.3227 5.07967 10.9983 4.91 11.4062C4.72678 11.85 4.24156 12.3571 3.77157 12.8482L3.7675 12.8525C2.93875 13.715 2 14.695 2 16C2 17.305 2.93875 18.2837 3.7675 19.1475L3.77836 19.1588C4.24622 19.6478 4.72766 20.1509 4.91 20.5938C5.07967 21.0017 5.08996 21.6773 5.09994 22.3324L5.1 22.3363L5.10007 22.3411C5.1188 23.5599 5.14001 24.94 6.1 25.9C7.05999 26.86 8.44012 26.8812 9.65894 26.8999L9.66375 26.9L9.66763 26.9001C10.3227 26.91 10.9983 26.9203 11.4062 27.09C11.85 27.2732 12.3571 27.7584 12.8483 28.2284L12.8525 28.2325C13.715 29.0613 14.695 30 16 30C17.305 30 18.2837 29.0613 19.1475 28.2325L19.1588 28.2216C19.6478 27.7538 20.1509 27.2723 20.5938 27.09C21.0017 26.9203 21.6773 26.91 22.3324 26.9001L22.3363 26.9L22.3411 26.8999C23.5599 26.8812 24.94 26.86 25.9 25.9C26.86 24.94 26.8812 23.5599 26.8999 22.3411L26.9 22.3363L26.9001 22.3324C26.91 21.6773 26.9203 21.0017 27.09 20.5938C27.2732 20.15 27.7585 19.6429 28.2284 19.1517L28.2325 19.1475C29.0613 18.285 30 17.305 30 16C30 14.695 29.0613 13.7162 28.2325 12.8525ZM26.7887 17.7638L26.785 17.7676C26.1874 18.3914 25.5693 19.0366 25.2412 19.8288C24.9262 20.5913 24.9125 21.4625 24.9 22.3062C24.8875 23.1812 24.8738 24.0975 24.485 24.485C24.0963 24.8725 23.1862 24.8875 22.3062 24.9C21.4625 24.9125 20.5913 24.9262 19.8288 25.2412C19.0366 25.5693 18.3914 26.1874 17.7676 26.785L17.7638 26.7887L17.7615 26.7909C17.1372 27.389 16.4994 28 16 28C15.5 28 14.8562 27.385 14.2362 26.7887C13.6163 26.1925 12.965 25.57 12.1713 25.2412C11.4088 24.9262 10.5375 24.9125 9.69375 24.9C8.81875 24.8875 7.9025 24.8738 7.515 24.485C7.1275 24.0963 7.1125 23.1862 7.1 22.3062C7.0875 21.4625 7.07375 20.5913 6.75875 19.8288C6.43068 19.0366 5.81255 18.3914 5.21495 17.7676L5.21125 17.7638L5.20909 17.7615C4.61103 17.1372 4 16.4994 4 16C4 15.5 4.615 14.8562 5.21125 14.2362C5.8075 13.6163 6.43 12.965 6.75875 12.1713C7.07375 11.4088 7.0875 10.5375 7.1 9.69375C7.1125 8.81875 7.12625 7.9025 7.515 7.515C7.90375 7.1275 8.81375 7.1125 9.69375 7.1C10.5375 7.0875 11.4088 7.07375 12.1713 6.75875C12.9634 6.43068 13.6086 5.81255 14.2324 5.21495L14.2362 5.21125L14.2385 5.20909C14.8628 4.61103 15.5006 4 16 4C16.5 4 17.1438 4.615 17.7638 5.21125C18.3838 5.8075 19.035 6.43 19.8288 6.75875C20.5913 7.07375 21.4625 7.0875 22.3062 7.1C23.1812 7.1125 24.0975 7.12625 24.485 7.515C24.8725 7.90375 24.8875 8.81375 24.9 9.69375C24.9125 10.5375 24.9262 11.4088 25.2412 12.1713C25.5693 12.9634 26.1874 13.6086 26.785 14.2324L26.7887 14.2362L26.7909 14.2385C27.389 14.8628 28 15.5006 28 16C28 16.5 27.385 17.1438 26.7887 17.7638ZM21.7075 12.2925C21.8005 12.3854 21.8742 12.4957 21.9246 12.6171C21.9749 12.7385 22.0008 12.8686 22.0008 13C22.0008 13.1314 21.9749 13.2615 21.9246 13.3829C21.8742 13.5043 21.8005 13.6146 21.7075 13.7075L14.7075 20.7075C14.6146 20.8005 14.5043 20.8742 14.3829 20.9246C14.2615 20.9749 14.1314 21.0008 14 21.0008C13.8686 21.0008 13.7385 20.9749 13.6171 20.9246C13.4957 20.8742 13.3854 20.8005 13.2925 20.7075L10.2925 17.7075C10.1049 17.5199 9.99944 17.2654 9.99944 17C9.99944 16.7346 10.1049 16.4801 10.2925 16.2925C10.4801 16.1049 10.7346 15.9994 11 15.9994C11.2654 15.9994 11.5199 16.1049 11.7075 16.2925C12.9735 17.5592 15.0267 17.5593 16.2929 16.2929L20.2925 12.2925C20.3854 12.1995 20.4957 12.1258 20.6171 12.0754C20.7385 12.0251 20.8686 11.9992 21 11.9992C21.1314 11.9992 21.2615 12.0251 21.3829 12.0754C21.5043 12.1258 21.6146 12.1995 21.7075 12.2925Z" stroke="url(#paint1_linear_214_3096)"/>
<defs>
<linearGradient id="paint0_linear_214_3096" x1="2" y1="16" x2="30" y2="16" gradientUnits="userSpaceOnUse">
<stop stop-color="#7CB13A"/>
<stop offset="1" stop-color="#16AAE2"/>
</linearGradient>
<linearGradient id="paint1_linear_214_3096" x1="30" y1="4.29508" x2="10.2252" y2="5.67896" gradientUnits="userSpaceOnUse">
<stop stop-color="#D8F4FF"/>
<stop offset="1" stop-color="#7AB13D" stop-opacity="0.2"/>
</linearGradient>
</defs>
</svg>
